<?xml version="1.0" encoding="UTF-8" standalone="no"?>
<!DOCTYPE svg PUBLIC "-//W3C//DTD SVG 1.1//EN"
 "http://www.w3.org/Graphics/SVG/1.1/DTD/svg11.dtd">
<!-- Generated by graphviz version 2.44.1 (20200629.0846)
 -->
<!-- Title: g Pages: 1 -->
<svg width="1617pt" height="1552pt"
 viewBox="0.00 0.00 1617.00 1552.00" xmlns="http://www.w3.org/2000/svg" xmlns:xlink="http://www.w3.org/1999/xlink">
<g id="graph0" class="graph" transform="scale(1 1) rotate(0) translate(4 1548)">
<title>g</title>
<polygon fill="white" stroke="transparent" points="-4,4 -4,-1548 1613,-1548 1613,4 -4,4"/>
<g id="clust1" class="cluster">
<title>cluster_1068799382</title>
<polygon fill="#ececec" stroke="black" points="8,-8 8,-1129.6 1601,-1129.6 1601,-8 8,-8"/>
<text text-anchor="middle" x="36.22" y="-1113" font-family="Times New Roman,serif" font-size="14.00">models</text>
</g>
<g id="clust2" class="cluster">
<title>cluster_1714548649</title>
<polygon fill="#ececec" stroke="black" points="498,-1181.2 498,-1536 790,-1536 790,-1181.2 498,-1181.2"/>
<text text-anchor="middle" x="535.93" y="-1519.4" font-family="Times New Roman,serif" font-size="14.00">controllers</text>
</g>
<!-- AxiomSimbol1068799382 -->
<g id="node1" class="node">
<title>AxiomSimbol1068799382</title>
<polygon fill="#ffffff" stroke="transparent" points="154,-461.2 16,-461.2 16,-411.2 154,-411.2 154,-461.2"/>
<text text-anchor="start" x="21" y="-443.6" font-family="Times New Roman,serif" font-size="14.00">(C)AxiomSimbol</text>
<text text-anchor="start" x="20.64" y="-419.6" font-family="Times New Roman,serif" font-size="14.00">&#45; &#160;&#160;simbol: String [0..1]</text>
<polygon fill="black" stroke="black" points="16,-436.2 16,-436.2 154,-436.2 154,-436.2 16,-436.2"/>
<polygon fill="none" stroke="black" points="16,-411.2 16,-461.2 154,-461.2 154,-411.2 16,-411.2"/>
</g>
<!-- GeneralNode1068799382 -->
<g id="node2" class="node">
<title>GeneralNode1068799382</title>
<polygon fill="#ffffff" stroke="transparent" points="469.5,-497.2 172.5,-497.2 172.5,-375.2 469.5,-375.2 469.5,-497.2"/>
<text text-anchor="start" x="178" y="-479.6" font-family="Times New Roman,serif" font-size="14.00">(C)GeneralNode</text>
<text text-anchor="start" x="177.73" y="-455.6" font-family="Times New Roman,serif" font-size="14.00">&#45; &#160;&#160;childrenSimbol: ArrayList&lt;GeneralNode&gt; [0..1]</text>
<text text-anchor="start" x="178" y="-431.6" font-family="Times New Roman,serif" font-size="14.00">&#45; &#160;&#160;id: int [1]</text>
<text text-anchor="start" x="178" y="-407.6" font-family="Times New Roman,serif" font-size="14.00">&#45; &#160;&#160;simbol: Simbol [0..1]</text>
<text text-anchor="start" x="178" y="-383.6" font-family="Times New Roman,serif" font-size="14.00">+ addChild(child: GeneralNode)</text>
<polygon fill="black" stroke="black" points="173,-472.2 173,-472.2 470,-472.2 470,-472.2 173,-472.2"/>
<polygon fill="black" stroke="black" points="173,-400.2 173,-400.2 470,-400.2 470,-400.2 173,-400.2"/>
<polygon fill="none" stroke="black" points="172.5,-375.2 172.5,-497.2 469.5,-497.2 469.5,-375.2 172.5,-375.2"/>
</g>
<!-- Grammar1068799382 -->
<g id="node3" class="node">
<title>Grammar1068799382</title>
<polygon fill="#ffffff" stroke="transparent" points="817,-305.6 535,-305.6 535,-159.6 817,-159.6 817,-305.6"/>
<text text-anchor="start" x="540" y="-288" font-family="Times New Roman,serif" font-size="14.00">(C)Grammar</text>
<text text-anchor="start" x="540" y="-264" font-family="Times New Roman,serif" font-size="14.00">&#45; &#160;&#160;axiomSimbol: String [0..1]</text>
<text text-anchor="start" x="540" y="-240" font-family="Times New Roman,serif" font-size="14.00">&#45; &#160;&#160;grammarName: String [0..1]</text>
<text text-anchor="start" x="539.99" y="-216" font-family="Times New Roman,serif" font-size="14.00">&#45; &#160;&#160;noTerminalSimbols: ArrayList&lt;String&gt; [0..1]</text>
<text text-anchor="start" x="540" y="-192" font-family="Times New Roman,serif" font-size="14.00">&#45; &#160;&#160;productions: ArrayList&lt;Production&gt; [0..1]</text>
<text text-anchor="start" x="540" y="-168" font-family="Times New Roman,serif" font-size="14.00">&#45; &#160;&#160;terminalSimbols: ArrayList&lt;String&gt; [0..1]</text>
<polygon fill="black" stroke="black" points="535,-280.6 535,-280.6 817,-280.6 817,-280.6 535,-280.6"/>
<polygon fill="none" stroke="black" points="535,-159.6 535,-305.6 817,-305.6 817,-159.6 535,-159.6"/>
</g>
<!-- Production1068799382 -->
<g id="node6" class="node">
<title>Production1068799382</title>
<polygon fill="#ffffff" stroke="transparent" points="779,-90 573,-90 573,-16 779,-16 779,-90"/>
<text text-anchor="start" x="578" y="-72.4" font-family="Times New Roman,serif" font-size="14.00">(C)Production</text>
<text text-anchor="start" x="577.82" y="-48.4" font-family="Times New Roman,serif" font-size="14.00">&#45; &#160;&#160;noTerminalSimbol: String [0..1]</text>
<text text-anchor="start" x="578" y="-24.4" font-family="Times New Roman,serif" font-size="14.00">&#45; &#160;&#160;production: String [0..1]</text>
<polygon fill="black" stroke="black" points="573,-65 573,-65 779,-65 779,-65 573,-65"/>
<polygon fill="none" stroke="black" points="573,-16 573,-90 779,-90 779,-16 573,-16"/>
</g>
<!-- Grammar1068799382&#45;&gt;Production1068799382 -->
<g id="edge2" class="edge">
<title>Grammar1068799382&#45;&gt;Production1068799382</title>
<path fill="none" stroke="black" d="M676,-159.36C676,-139.45 676,-118.39 676,-100.38"/>
<polygon fill="black" stroke="black" points="679.5,-100.15 676,-90.15 672.5,-100.15 679.5,-100.15"/>
<text text-anchor="middle" x="709.05" y="-129" font-family="Times New Roman,serif" font-size="14.00">productions</text>
<text text-anchor="middle" x="709.05" y="-112.2" font-family="Times New Roman,serif" font-size="14.00">[0..1]</text>
</g>
<!-- GrammarManager1068799382 -->
<g id="node4" class="node">
<title>GrammarManager1068799382</title>
<polygon fill="#ffffff" stroke="transparent" points="1093.5,-1096.8 194.5,-1096.8 194.5,-566.8 1093.5,-566.8 1093.5,-1096.8"/>
<text text-anchor="start" x="200" y="-1079.2" font-family="Times New Roman,serif" font-size="14.00">(C)GrammarManager</text>
<text text-anchor="start" x="200" y="-1055.2" font-family="Times New Roman,serif" font-size="14.00">&#45; &#160;&#160;checker: WordChecker [0..1]</text>
<text text-anchor="start" x="200" y="-1031.2" font-family="Times New Roman,serif" font-size="14.00">&#45; &#160;&#160;generalRoot: GeneralNode [0..1]</text>
<text text-anchor="start" x="200" y="-1007.2" font-family="Times New Roman,serif" font-size="14.00">&#45; &#160;&#160;grammar: Grammar [0..1]</text>
<text text-anchor="start" x="200" y="-983.2" font-family="Times New Roman,serif" font-size="14.00">&#45; &#160;&#160;terminalChains: ArrayList&lt;String&gt; [0..1]</text>
<text text-anchor="start" x="200" y="-959.2" font-family="Times New Roman,serif" font-size="14.00">+ addBranch(father: GeneralNode, level: int)</text>
<text text-anchor="start" x="200" y="-935.2" font-family="Times New Roman,serif" font-size="14.00">&#45; addWordsToFather(father: GeneralNode, simbols: String, i: int, simbol: char)</text>
<text text-anchor="start" x="200" y="-911.2" font-family="Times New Roman,serif" font-size="14.00">+ changeToList(list: String[]): ArrayList&lt;String&gt;</text>
<text text-anchor="start" x="200" y="-887.2" font-family="Times New Roman,serif" font-size="14.00">+ checkWord(word: String): boolean</text>
<text text-anchor="start" x="199.91" y="-863.2" font-family="Times New Roman,serif" font-size="14.00">+ createGrammar(grammarName: String, noTerminalSimbols: String[], terminalSimbols: String[], axiomSimbol: String, productions: ArrayList&lt;Production&gt;)</text>
<text text-anchor="start" x="200" y="-839.2" font-family="Times New Roman,serif" font-size="14.00">+ createGrammar(grammar: Grammar)</text>
<text text-anchor="start" x="200" y="-815.2" font-family="Times New Roman,serif" font-size="14.00">&#45; formatWord(simbols: String, production: String, simbolPosition: int): String</text>
<text text-anchor="start" x="200" y="-791.2" font-family="Times New Roman,serif" font-size="14.00">+ generateGeneralTree()</text>
<text text-anchor="start" x="200" y="-767.2" font-family="Times New Roman,serif" font-size="14.00">&#45; isNoTerminal(character: char): boolean</text>
<text text-anchor="start" x="200" y="-743.2" font-family="Times New Roman,serif" font-size="14.00">&#45; isTerminal(character: char): boolean</text>
<text text-anchor="start" x="200" y="-719.2" font-family="Times New Roman,serif" font-size="14.00">+ print()</text>
<text text-anchor="start" x="200" y="-695.2" font-family="Times New Roman,serif" font-size="14.00">+ printNode(node: GeneralNode, level: int, fatherId: int)</text>
<text text-anchor="start" x="200" y="-671.2" font-family="Times New Roman,serif" font-size="14.00">+ printTree()</text>
<text text-anchor="start" x="200" y="-647.2" font-family="Times New Roman,serif" font-size="14.00">+ searchProduction(noTerminalSimbol: String): ArrayList&lt;String&gt;</text>
<text text-anchor="start" x="200" y="-623.2" font-family="Times New Roman,serif" font-size="14.00">+ searchProductionsGrammar(noTerminalSimbol: String): ArrayList&lt;Production&gt;</text>
<text text-anchor="start" x="200" y="-599.2" font-family="Times New Roman,serif" font-size="14.00">&#45; searchWordInLeafs(word: String): boolean</text>
<text text-anchor="start" x="200" y="-575.2" font-family="Times New Roman,serif" font-size="14.00">+ validateWordRestart(father: GeneralNode, level: int, levelMax: int)</text>
<polygon fill="black" stroke="black" points="195,-1071.8 195,-1071.8 1094,-1071.8 1094,-1071.8 195,-1071.8"/>
<polygon fill="black" stroke="black" points="195,-975.8 195,-975.8 1094,-975.8 1094,-975.8 195,-975.8"/>
<polygon fill="none" stroke="black" points="194.5,-566.8 194.5,-1096.8 1093.5,-1096.8 1093.5,-566.8 194.5,-566.8"/>
</g>
<!-- GrammarManager1068799382&#45;&gt;AxiomSimbol1068799382 -->
<g id="edge3" class="edge">
<title>GrammarManager1068799382&#45;&gt;AxiomSimbol1068799382</title>
<path fill="none" stroke="black" d="M264.04,-566.73C205.47,-526.02 164,-497.2 164,-497.2 164,-497.2 138.66,-477.95 116.68,-461.26"/>
</g>
<!-- GrammarManager1068799382&#45;&gt;GeneralNode1068799382 -->
<g id="edge4" class="edge">
<title>GrammarManager1068799382&#45;&gt;GeneralNode1068799382</title>
<path fill="none" stroke="black" d="M427.21,-566.62C409.04,-544.48 391.92,-523.63 376.96,-505.4"/>
<polygon fill="black" stroke="black" points="379.29,-502.72 370.24,-497.21 373.88,-507.16 379.29,-502.72"/>
<text text-anchor="middle" x="441.21" y="-536.2" font-family="Times New Roman,serif" font-size="14.00">generalRoot</text>
<text text-anchor="middle" x="441.21" y="-519.4" font-family="Times New Roman,serif" font-size="14.00">[0..1]</text>
</g>
<!-- GrammarManager1068799382&#45;&gt;Grammar1068799382 -->
<g id="edge5" class="edge">
<title>GrammarManager1068799382&#45;&gt;Grammar1068799382</title>
<path fill="none" stroke="black" d="M542.26,-566.73C526.57,-526.02 515.47,-497.2 515.47,-497.2 515.47,-497.2 515.47,-375.2 515.47,-375.2 515.47,-375.2 549.63,-345.06 586.44,-312.6"/>
<polygon fill="black" stroke="black" points="589.14,-314.88 594.32,-305.64 584.51,-309.63 589.14,-314.88"/>
<text text-anchor="middle" x="540.27" y="-440.4" font-family="Times New Roman,serif" font-size="14.00">grammar</text>
<text text-anchor="middle" x="540.27" y="-423.6" font-family="Times New Roman,serif" font-size="14.00">[0..1]</text>
</g>
<!-- NoTerminalSimbol1068799382 -->
<g id="node5" class="node">
<title>NoTerminalSimbol1068799382</title>
<polygon fill="#ffffff" stroke="transparent" points="713,-461.2 575,-461.2 575,-411.2 713,-411.2 713,-461.2"/>
<text text-anchor="start" x="580" y="-443.6" font-family="Times New Roman,serif" font-size="14.00">(C)NoTerminalSimbol</text>
<text text-anchor="start" x="579.64" y="-419.6" font-family="Times New Roman,serif" font-size="14.00">&#45; &#160;&#160;simbol: String [0..1]</text>
<polygon fill="black" stroke="black" points="575,-436.2 575,-436.2 713,-436.2 713,-436.2 575,-436.2"/>
<polygon fill="none" stroke="black" points="575,-411.2 575,-461.2 713,-461.2 713,-411.2 575,-411.2"/>
</g>
<!-- GrammarManager1068799382&#45;&gt;NoTerminalSimbol1068799382 -->
<g id="edge6" class="edge">
<title>GrammarManager1068799382&#45;&gt;NoTerminalSimbol1068799382</title>
<path fill="none" stroke="black" d="M644,-566.62C644,-523.36 644,-485.04 644,-461.54"/>
</g>
<!-- TerminalSimbol1068799382 -->
<g id="node7" class="node">
<title>TerminalSimbol1068799382</title>
<polygon fill="#ffffff" stroke="transparent" points="869,-461.2 731,-461.2 731,-411.2 869,-411.2 869,-461.2"/>
<text text-anchor="start" x="736" y="-443.6" font-family="Times New Roman,serif" font-size="14.00">(C)TerminalSimbol</text>
<text text-anchor="start" x="735.64" y="-419.6" font-family="Times New Roman,serif" font-size="14.00">&#45; &#160;&#160;simbol: String [0..1]</text>
<polygon fill="black" stroke="black" points="731,-436.2 731,-436.2 869,-436.2 869,-436.2 731,-436.2"/>
<polygon fill="none" stroke="black" points="731,-411.2 731,-461.2 869,-461.2 869,-411.2 731,-411.2"/>
</g>
<!-- GrammarManager1068799382&#45;&gt;TerminalSimbol1068799382 -->
<g id="edge7" class="edge">
<title>GrammarManager1068799382&#45;&gt;TerminalSimbol1068799382</title>
<path fill="none" stroke="black" d="M748.7,-566.62C765.85,-523.36 781.04,-485.04 790.35,-461.54"/>
</g>
<!-- WordChecker1068799382 -->
<g id="node8" class="node">
<title>WordChecker1068799382</title>
<polygon fill="#ffffff" stroke="transparent" points="1437,-497.2 887,-497.2 887,-375.2 1437,-375.2 1437,-497.2"/>
<text text-anchor="start" x="892" y="-479.6" font-family="Times New Roman,serif" font-size="14.00">(C)WordChecker</text>
<text text-anchor="start" x="892" y="-455.6" font-family="Times New Roman,serif" font-size="14.00">&#45; &#160;&#160;grammar: Grammar [0..1]</text>
<text text-anchor="start" x="891.65" y="-431.6" font-family="Times New Roman,serif" font-size="14.00">&#45; getNonTerminalProductions(symbol: String, productions: ArrayList&lt;Production&gt;): Production</text>
<text text-anchor="start" x="892" y="-407.6" font-family="Times New Roman,serif" font-size="14.00">&#45; getProductions(nonTerminalSymbol: String): ArrayList&lt;Production&gt;</text>
<text text-anchor="start" x="892" y="-383.6" font-family="Times New Roman,serif" font-size="14.00">&#45; getTerminalProduction(symbol: String, productions: ArrayList&lt;Production&gt;): Production</text>
<polygon fill="black" stroke="black" points="887,-472.2 887,-472.2 1437,-472.2 1437,-472.2 887,-472.2"/>
<polygon fill="black" stroke="black" points="887,-448.2 887,-448.2 1437,-448.2 1437,-448.2 887,-448.2"/>
<polygon fill="none" stroke="black" points="887,-375.2 887,-497.2 1437,-497.2 1437,-375.2 887,-375.2"/>
</g>
<!-- GrammarManager1068799382&#45;&gt;WordChecker1068799382 -->
<g id="edge8" class="edge">
<title>GrammarManager1068799382&#45;&gt;WordChecker1068799382</title>
<path fill="none" stroke="black" d="M991.67,-566.62C1021.87,-543.68 1050.23,-522.13 1074.83,-503.43"/>
<polygon fill="black" stroke="black" points="1077.18,-506.04 1083.03,-497.21 1072.95,-500.47 1077.18,-506.04"/>
<text text-anchor="middle" x="1071.76" y="-536.2" font-family="Times New Roman,serif" font-size="14.00">checker</text>
<text text-anchor="middle" x="1071.76" y="-519.4" font-family="Times New Roman,serif" font-size="14.00">[0..1]</text>
</g>
<!-- WordSimbol1068799382 -->
<g id="node9" class="node">
<title>WordSimbol1068799382</title>
<polygon fill="#ffffff" stroke="transparent" points="1593,-461.2 1455,-461.2 1455,-411.2 1593,-411.2 1593,-461.2"/>
<text text-anchor="start" x="1460" y="-443.6" font-family="Times New Roman,serif" font-size="14.00">(C)WordSimbol</text>
<text text-anchor="start" x="1459.64" y="-419.6" font-family="Times New Roman,serif" font-size="14.00">&#45; &#160;&#160;simbol: String [0..1]</text>
<polygon fill="black" stroke="black" points="1455,-436.2 1455,-436.2 1593,-436.2 1593,-436.2 1455,-436.2"/>
<polygon fill="none" stroke="black" points="1455,-411.2 1455,-461.2 1593,-461.2 1593,-411.2 1455,-411.2"/>
</g>
<!-- GrammarManager1068799382&#45;&gt;WordSimbol1068799382 -->
<g id="edge9" class="edge">
<title>GrammarManager1068799382&#45;&gt;WordSimbol1068799382</title>
<path fill="none" stroke="black" d="M1093.65,-643.76C1276.69,-567.63 1446,-497.2 1446,-497.2 1446,-497.2 1471.02,-477.95 1492.72,-461.26"/>
</g>
<!-- WordChecker1068799382&#45;&gt;Grammar1068799382 -->
<g id="edge10" class="edge">
<title>WordChecker1068799382&#45;&gt;Grammar1068799382</title>
<path fill="none" stroke="black" d="M1017.17,-375.12C957.03,-350.18 887.25,-321.23 826.53,-296.04"/>
<polygon fill="black" stroke="black" points="827.83,-292.79 817.25,-292.19 825.15,-299.26 827.83,-292.79"/>
<text text-anchor="middle" x="987.27" y="-344.6" font-family="Times New Roman,serif" font-size="14.00">grammar</text>
<text text-anchor="middle" x="987.27" y="-327.8" font-family="Times New Roman,serif" font-size="14.00">[0..1]</text>
</g>
<!-- Controller1714548649 -->
<g id="node10" class="node">
<title>Controller1714548649</title>
<polygon fill="#ffffff" stroke="transparent" points="781.5,-1503.2 506.5,-1503.2 506.5,-1189.2 781.5,-1189.2 781.5,-1503.2"/>
<text text-anchor="start" x="512" y="-1485.6" font-family="Times New Roman,serif" font-size="14.00">(C)Controller</text>
<text text-anchor="start" x="512" y="-1461.6" font-family="Times New Roman,serif" font-size="14.00">&#45; &#160;&#160;frame: PrincipalFrame [0..1]</text>
<text text-anchor="start" x="512" y="-1437.6" font-family="Times New Roman,serif" font-size="14.00">&#45; &#160;&#160;manager: GrammarManager [0..1]</text>
<text text-anchor="start" x="512" y="-1413.6" font-family="Times New Roman,serif" font-size="14.00">&#45; &#160;&#160;persistence: Persistence [0..1]</text>
<text text-anchor="start" x="511.72" y="-1389.6" font-family="Times New Roman,serif" font-size="14.00">&#45; &#160;&#160;productionsDialog: ProductionsDialog [0..1]</text>
<text text-anchor="start" x="512" y="-1365.6" font-family="Times New Roman,serif" font-size="14.00">+ actionPerformed(e: ActionEvent)</text>
<text text-anchor="start" x="512" y="-1341.6" font-family="Times New Roman,serif" font-size="14.00">&#45; createAndAddGrammar()</text>
<text text-anchor="start" x="512" y="-1317.6" font-family="Times New Roman,serif" font-size="14.00">&#45; deleteParameters()</text>
<text text-anchor="start" x="512" y="-1293.6" font-family="Times New Roman,serif" font-size="14.00">&#45; editParameters()</text>
<text text-anchor="start" x="512" y="-1269.6" font-family="Times New Roman,serif" font-size="14.00">&#45; loadGrammar()</text>
<text text-anchor="start" x="512" y="-1245.6" font-family="Times New Roman,serif" font-size="14.00">+ main(args: String[])</text>
<text text-anchor="start" x="512" y="-1221.6" font-family="Times New Roman,serif" font-size="14.00">&#45; saveGrammar()</text>
<text text-anchor="start" x="512" y="-1197.6" font-family="Times New Roman,serif" font-size="14.00">&#45; validateWordOnGrammar()</text>
<polygon fill="black" stroke="black" points="507,-1478.2 507,-1478.2 782,-1478.2 782,-1478.2 507,-1478.2"/>
<polygon fill="black" stroke="black" points="507,-1382.2 507,-1382.2 782,-1382.2 782,-1382.2 507,-1382.2"/>
<polygon fill="none" stroke="black" points="506.5,-1189.2 506.5,-1503.2 781.5,-1503.2 781.5,-1189.2 506.5,-1189.2"/>
</g>
<!-- Controller1714548649&#45;&gt;GrammarManager1068799382 -->
<g id="edge1" class="edge">
<title>Controller1714548649&#45;&gt;GrammarManager1068799382</title>
<path fill="none" stroke="black" d="M644,-1189.03C644,-1162.94 644,-1135.21 644,-1107.19"/>
<polygon fill="black" stroke="black" points="647.5,-1106.86 644,-1096.86 640.5,-1106.86 647.5,-1106.86"/>
<text text-anchor="middle" x="668.1" y="-1158.6" font-family="Times New Roman,serif" font-size="14.00">manager</text>
<text text-anchor="middle" x="668.1" y="-1141.8" font-family="Times New Roman,serif" font-size="14.00">[0..1]</text>
</g>
</g>
</svg>
